<?xml version="1.0" ?><svg viewBox="0 0 64 64" xmlns="http://www.w3.org/2000/svg"><g id="outline"><path d="M3.546,29.749,5.209,28.7A26.9,26.9,0,0,0,26.051,58.673a27.228,27.228,0,0,0,5.966.665A27.008,27.008,0,0,0,54.773,17.881a26.82,26.82,0,0,0-16.9-11.9,27.124,27.124,0,0,0-27.288,9.839,1,1,0,1,0,1.582,1.223A25.113,25.113,0,0,1,37.439,7.935a25,25,0,1,1-30.3,21.434l.878,1.385a1,1,0,0,0,1.689-1.07L7.439,26.1A1,1,0,0,0,6.06,25.79L2.476,28.06a1,1,0,1,0,1.07,1.689Z"/><path d="M29,43a1,1,0,0,0,1,1h4a1,1,0,0,0,1-1V39.63a4,4,0,1,0-6,0Zm3-8a2,2,0,0,1,2,2,1.971,1.971,0,0,1-.67,1.479,1,1,0,0,0-.33.743V42H31V39.222a1,1,0,0,0-.33-.743A1.971,1.971,0,0,1,30,37,2,2,0,0,1,32,35Z"/><path d="M33.083,12.917H30.917A7.926,7.926,0,0,0,23,20.833V27H20a1,1,0,0,0-1,1V49a1,1,0,0,0,1,1H44a1,1,0,0,0,1-1V28a1,1,0,0,0-1-1H41V20.833A7.926,7.926,0,0,0,33.083,12.917ZM25,20.833a5.923,5.923,0,0,1,5.917-5.916h2.166A5.923,5.923,0,0,1,39,20.833V27H37V21.833a4.922,4.922,0,0,0-4.917-4.916A5.088,5.088,0,0,0,27,22v5H25Zm10,1V27H29V22a3.086,3.086,0,0,1,3.083-3.083A2.92,2.92,0,0,1,35,21.833ZM43,29V48H21V29Z"/></g></svg>